# xmcd CD database file
#
# Track frame offsets:
#	150
#	11011
#	22436
#	37412
#	49839
#	60677
#	74794
#	85882
#	96243
#	108638
#	120298
#	132412
#	144387
#	155770
#	164689
#	175017
#	187928
#	200109
#	213294
#	226088
#	237325
#	248811
#	259150
#	270996
#	282988
#
# Disc length: 3957 seconds
#
# Revision: 0
# Processed by: cddbd v1.5PL3 Copyright (c) Steve Scherf et al.
# Submitted via: CDex 1.51
#
DISCID=7d0f7319
DTITLE=Di Donna - Runes 
DYEAR=2002
DGENRE=New Age
TTITLE0=Di Donna - Perth
TTITLE1=Di Donna - Laguz
TTITLE2=Di Donna - Inguz
TTITLE3=Di Donna - Elhaz
TTITLE4=Di Donna - Thorn
TTITLE5=Di Donna - Ehwaz
TTITLE6=Di Donna - Sigel
TTITLE7=Di Donna - Wunjo
TTITLE8=Di Donna - Naudhiz
TTITLE9=Di Donna - Dagaz
TTITLE10=Di Donna - Eiwaz
TTITLE11=Di Donna - Gebo
TTITLE12=Di Donna - Ansuz
TTITLE13=Di Donna - Fehu
TTITLE14=Di Donna - Raidho
TTITLE15=Di Donna - Jera
TTITLE16=Di Donna - Hagall
TTITLE17=Di Donna - Uruz
TTITLE18=Di Donna - Ken
TTITLE19=Di Donna - Berkana
TTITLE20=Di Donna - Othal
TTITLE21=Di Donna - Teiwaz
TTITLE22=Di Donna - Mannaz
TTITLE23=Di Donna - Isa
TTITLE24=Di Donna - Wyrd
EXTD=YEAR: 2002
EXTT0=
EXTT1=
EXTT2=
EXTT3=
EXTT4=
EXTT5=
EXTT6=
EXTT7=
EXTT8=
EXTT9=
EXTT10=
EXTT11=
EXTT12=
EXTT13=
EXTT14=
EXTT15=
EXTT16=
EXTT17=
EXTT18=
EXTT19=
EXTT20=
EXTT21=
EXTT22=
EXTT23=
EXTT24=
PLAYORDER=
